<?xml version="1.0" standalone="no"?>
<!DOCTYPE svg PUBLIC "-//W3C//DTD SVG 20010904//EN"
 "http://www.w3.org/TR/2001/REC-SVG-20010904/DTD/svg10.dtd">
<svg version="1.0" xmlns="http://www.w3.org/2000/svg"
 width="512.000000pt" height="512.000000pt" viewBox="0 0 512.000000 512.000000"
 preserveAspectRatio="xMidYMid meet">

<g transform="translate(0.000000,512.000000) scale(0.100000,-0.100000)"
fill="#05585c" stroke="none">
<path d="M1960 4467 c-105 -29 -198 -119 -230 -224 -17 -54 -20 -93 -20 -234
l0 -169 -455 0 -455 0 0 -160 0 -160 58 0 c67 0 113 -23 137 -70 13 -24 36
-290 110 -1233 119 -1521 111 -1426 130 -1475 21 -53 61 -78 145 -91 89 -15
2271 -15 2360 0 84 13 124 38 145 91 19 49 11 -43 130 1477 104 1321 94 1248
165 1283 20 10 57 18 88 18 l52 0 0 160 0 160 -455 0 -455 0 0 168 c0 181 -11
242 -54 311 -32 50 -100 109 -155 135 -45 21 -57 21 -621 23 -433 2 -586 -1
-620 -10z m1160 -213 c19 -11 45 -35 57 -54 22 -31 23 -43 23 -196 l0 -164
-640 0 -640 0 0 161 c0 126 3 168 16 194 16 35 50 62 93 76 14 4 258 7 541 6
500 -2 516 -3 550 -23z m-1137 -1946 c27 -491 51 -923 54 -960 l6 -68 -104 0
-104 0 -48 913 c-27 501 -51 933 -54 960 l-6 47 104 0 104 0 48 -892z m687
-68 l0 -960 -110 0 -110 0 0 960 0 960 110 0 110 0 0 -960z m720 948 c0 -7
-23 -425 -50 -928 -27 -503 -50 -930 -50 -947 l0 -33 -105 0 -105 0 5 53 c3
28 26 432 50 897 25 465 47 873 51 908 l6 62 99 0 c73 0 99 -3 99 -12z"/>
</g>
</svg>
