<svg width="42" height="48" viewBox="0 0 42 48" fill="none" xmlns="http://www.w3.org/2000/svg">
<path d="M41.6231 9.02344C40.5909 4.78406 37.2066 1.33031 32.9972 0.237187C29.9794 -0.546563 27.0909 0.715312 24.6403 2.51812C24.3356 2.74219 23.9878 2.86781 23.6559 3.03187L26.3109 4.73906C27.0066 5.18625 27.2091 6.11438 26.7609 6.81188C26.3428 7.46344 25.4231 7.73625 24.6881 7.26187L15.2653 1.20375C13.3247 0.186562 11.1984 -0.33375 9.00187 0.237187C4.7925 1.33125 1.40812 4.78406 0.375937 9.02344C-0.573751 12.9253 0.336562 16.5994 2.39156 19.3763C4.58156 22.3359 5.45531 25.8131 5.79375 29.4403C6.20625 33.8616 6.76219 38.2678 7.75687 42.5953L8.48812 45.7781C8.78719 47.0784 9.94031 48 11.2697 48C12.5794 48 13.7212 47.1047 14.0391 45.8287L17.2706 32.8519C17.6981 31.1344 19.2356 29.9306 20.9981 29.9306C22.7606 29.9306 24.2981 31.1353 24.7256 32.8519L27.9572 45.8287C28.275 47.1047 29.4169 48 30.7266 48C32.0559 48 33.2091 47.0784 33.5081 45.7781L34.2394 42.5953C35.2341 38.2687 35.7891 33.8616 36.2025 29.4403C36.5409 25.8122 37.4147 22.3359 39.6047 19.3763C41.6625 16.6003 42.5728 12.9262 41.6231 9.02344Z" fill="#E5E5E5"/>
</svg>
