<?xml version="1.0" standalone="no"?>
<!DOCTYPE svg PUBLIC "-//W3C//DTD SVG 20010904//EN"
 "http://www.w3.org/TR/2001/REC-SVG-20010904/DTD/svg10.dtd">
<svg version="1.0" xmlns="http://www.w3.org/2000/svg"
 width="2084.000000pt" height="2084.000000pt" viewBox="0 0 2084.000000 2084.000000"
 preserveAspectRatio="xMidYMid meet">

<g transform="translate(0.000000,2084.000000) scale(0.100000,-0.100000)"
fill="#06585c" stroke="none">
<path d="M13779 15891 l-29 -29 0 -231 c0 -229 0 -230 24 -258 l24 -28 241 0
c237 0 241 0 263 23 22 22 23 28 26 258 l3 235 -30 29 -29 30 -232 0 -232 0
-29 -29z"/>
<path d="M13805 14875 l-25 -24 0 -405 0 -404 31 -26 31 -27 399 3 398 3 23
23 23 23 0 405 0 406 -28 24 -28 24 -400 0 -400 0 -24 -25z"/>
<path d="M8010 14880 c-534 -74 -767 -595 -594 -1325 126 -525 466 -1151 958
-1760 344 -425 839 -924 1261 -1270 894 -734 1793 -1155 2339 -1095 55 7 102
12 103 13 2 3 130 458 172 612 210 782 431 1829 471 2224 25 256 2 543 -56
696 -5 13 37 15 378 15 l385 0 21 23 22 23 0 541 c0 518 -1 542 -19 564 l-19
24 -533 3 c-369 2 -542 -1 -560 -8 -46 -20 -49 -40 -49 -371 l0 -310 -64 36
c-82 46 -198 88 -306 111 -128 28 -389 25 -530 -5 -219 -46 -450 -140 -807
-329 -92 -49 -262 -139 -378 -200 -468 -247 -761 -347 -955 -327 -136 15 -245
65 -348 160 -69 63 -99 70 -132 28 -25 -33 -21 -58 20 -118 76 -111 218 -209
370 -257 65 -20 95 -23 225 -23 131 0 164 4 265 29 230 57 452 142 935 356
310 137 591 247 700 275 333 85 634 40 803 -118 99 -94 158 -209 192 -377 42
-212 36 -376 -26 -745 -110 -646 -333 -1602 -531 -2275 -34 -113 -28 -111
-186 -80 -1260 248 -3125 1995 -3775 3535 -72 171 -70 160 -21 185 140 72 387
148 570 176 140 22 393 21 528 -1 304 -49 614 -186 836 -369 92 -76 91 -76 41
19 -200 378 -525 615 -961 702 -141 28 -517 25 -685 -5 -145 -26 -294 -62
-402 -98 -43 -14 -82 -23 -87 -20 -17 11 -34 206 -28 345 6 156 21 223 76 336
72 146 214 256 383 299 544 138 1493 -305 2448 -1142 l95 -83 -105 101 c-636
617 -1377 1089 -1932 1231 -187 47 -382 66 -508 49z"/>
<path d="M6472 7820 c-40 -10 -97 -32 -125 -47 -75 -40 -187 -155 -225 -231
-108 -218 -68 -485 98 -652 167 -166 442 -207 662 -98 84 42 194 152 236 236
128 259 41 591 -192 727 -136 79 -310 105 -454 65z m307 -190 c74 -40 134
-102 169 -178 24 -51 27 -69 27 -167 0 -100 -3 -116 -29 -172 -34 -73 -113
-153 -183 -186 -39 -18 -66 -22 -143 -22 -89 0 -99 3 -158 34 -75 41 -135 103
-170 179 -24 51 -27 69 -27 167 0 98 3 116 27 167 29 63 93 137 145 169 60 37
112 49 199 45 69 -3 92 -9 143 -36z"/>
<path d="M13070 7827 c-73 -21 -122 -49 -166 -93 -105 -104 -112 -302 -15
-401 51 -53 123 -86 282 -128 73 -20 151 -46 173 -58 51 -28 81 -83 72 -132
-22 -116 -213 -152 -379 -72 -40 19 -89 48 -110 65 l-39 31 -55 -65 c-53 -63
-55 -66 -37 -85 35 -39 130 -93 212 -122 202 -69 420 -36 523 81 47 54 69 117
69 202 0 182 -89 257 -399 335 -80 20 -155 57 -175 87 -20 28 -21 90 -1 127 8
16 34 38 58 50 84 41 208 21 334 -53 l57 -34 50 70 49 71 -24 19 c-34 27 -114
67 -179 90 -71 25 -237 33 -300 15z"/>
<path d="M5230 7285 l0 -535 375 0 375 0 0 85 0 85 -280 0 -280 0 0 450 0 450
-95 0 -95 0 0 -535z"/>
<path d="M7420 7285 l0 -535 95 0 95 0 0 185 0 186 117 -3 117 -3 130 -182
131 -183 107 0 c60 0 108 2 108 5 0 3 -64 93 -141 201 -78 107 -140 196 -138
198 2 1 26 11 53 21 71 26 148 105 175 178 62 169 -7 353 -158 421 -90 40
-143 46 -427 46 l-264 0 0 -535z m553 354 c46 -12 100 -58 117 -99 18 -44 8
-130 -19 -169 -12 -17 -41 -41 -64 -54 -38 -20 -59 -22 -219 -25 l-178 -4 0
181 0 181 163 0 c89 0 179 -5 200 -11z"/>
<path d="M8520 7285 l0 -535 400 0 400 0 0 85 0 85 -305 0 -305 0 0 145 0 145
265 0 265 0 0 85 0 85 -265 0 -265 0 0 135 0 135 300 0 300 0 0 85 0 85 -395
0 -395 0 0 -535z"/>
<path d="M9550 7285 l0 -535 90 0 90 0 0 375 c0 206 3 375 8 375 4 0 79 -108
166 -240 87 -132 163 -240 167 -240 5 0 83 111 174 247 l165 248 0 -383 0
-382 95 0 95 0 0 535 0 536 -102 -3 -101 -3 -160 -248 c-128 -199 -162 -246
-172 -235 -7 7 -81 120 -165 251 l-152 237 -99 0 -99 0 0 -535z"/>
<path d="M11350 7285 l0 -535 95 0 95 0 0 535 0 535 -95 0 -95 0 0 -535z"/>
<path d="M11820 7285 l0 -535 95 0 95 0 0 170 0 170 138 0 c205 0 312 32 399
120 165 165 117 467 -90 563 -85 40 -143 47 -397 47 l-240 0 0 -535z m491 355
c91 -26 142 -88 143 -179 1 -76 -27 -127 -89 -166 -47 -29 -51 -30 -202 -33
l-153 -4 0 196 0 196 133 0 c72 0 148 -5 168 -10z"/>
<path d="M13810 7478 c0 -259 4 -360 15 -411 29 -140 119 -255 233 -297 245
-92 512 -18 606 167 58 115 59 129 64 521 l4 362 -96 0 -96 0 0 -335 c0 -202
-4 -354 -11 -385 -25 -115 -109 -188 -232 -197 -126 -10 -223 42 -271 146 -20
44 -21 64 -24 409 l-3 362 -94 0 -95 0 0 -342z"/>
<path d="M14980 7285 l0 -535 90 0 90 0 0 375 c0 206 3 375 8 375 4 0 79 -108
166 -240 87 -132 163 -240 167 -240 5 0 83 111 174 247 l165 248 0 -383 0
-382 95 0 95 0 0 535 0 536 -102 -3 -101 -3 -160 -248 c-128 -199 -162 -246
-172 -235 -7 7 -81 120 -165 251 l-152 237 -99 0 -99 0 0 -535z"/>
</g>
</svg>
